<svg width="1024" height="1024" viewBox="0 0 1024 1024" fill="none" xmlns="http://www.w3.org/2000/svg">
<rect width="1024" height="1024" rx="128" fill="#030109"/>
<path d="M637.298 291.959C577.762 280.821 523.288 307.147 493.115 351.092C493.317 350.889 493.317 350.687 493.52 350.484C485.42 350.079 476.915 350.079 468.409 350.079C378.903 350.079 306.406 360.205 306.406 431.083V633.594C306.406 651.415 314.304 667.413 326.656 678.551V704.472C326.656 721.281 340.224 734.849 357.032 734.849C373.84 734.849 387.408 721.281 387.408 704.472V694.347H549.411V704.472C549.411 721.078 562.979 734.849 579.787 734.849C596.392 734.849 610.162 721.281 610.162 704.472V678.551C622.515 667.413 630.413 651.415 630.413 633.594V571.221C705.744 560.285 762.041 490.621 750.295 409.82C741.79 351.092 695.619 302.692 637.298 291.959ZM377.282 653.845C360.475 653.845 346.907 640.277 346.907 623.468C346.907 606.66 360.475 593.092 377.282 593.092C394.09 593.092 407.658 606.66 407.658 623.468C407.658 640.277 394.09 653.845 377.282 653.845ZM352.038 532.339C349.204 532.339 346.907 530.041 346.907 527.207V436.215C346.907 433.381 349.204 431.083 352.038 431.083H467.127C467.835 431.083 468.409 431.66 468.415 432.369C468.755 470.419 484.168 504.856 508.91 530.113C509.715 530.935 509.139 532.339 507.989 532.339H352.038ZM559.536 653.845C542.728 653.845 529.161 640.277 529.161 623.468C529.161 606.66 542.728 593.092 559.536 593.092C576.344 593.092 589.912 606.66 589.912 623.468C589.912 640.277 576.344 653.845 559.536 653.845ZM610.162 532.339C554.271 532.339 508.91 486.976 508.91 431.083C508.91 375.191 554.271 329.828 610.162 329.828C666.054 329.828 711.414 375.191 711.414 431.083C711.414 486.976 666.054 532.339 610.162 532.339ZM605.1 350.079C596.797 350.079 589.912 356.965 589.912 365.268V439.791C589.912 446.879 593.76 453.562 599.835 457.207L650.866 487.786C657.751 491.837 666.661 489.609 670.711 482.926C674.964 476.041 672.736 466.928 665.649 462.878L620.288 436.146V365.268C620.288 356.965 613.402 350.079 605.1 350.079Z" fill="url(#paint0_radial_960_7)"/>
<defs>
<radialGradient id="paint0_radial_960_7" cx="0" cy="0" r="1" gradientUnits="userSpaceOnUse" gradientTransform="translate(609.521 442.312) rotate(136.017) scale(421.313 397.575)">
<stop stop-color="#8E85FF"/>
<stop offset="1" stop-color="#634DFF"/>
</radialGradient>
</defs>
</svg>
